<?xml version="1.0" standalone="yes"?>
<svg version="1.1" xmlns="http://www.w3.org/2000/svg" xmlns:xlink="http://www.w3.org/1999/xlink" xmlns:ev="http://www.w3.org/2001/xml-events" width="310" height="310">
<path style="fill:#000000; stroke:none;" d="M10 10L10 80L80 80L80 10L10 10M100 10L100 20L90 20L90 30L100 30L100 50L90 50L90 60L120 60L120 70L110 70L110 80L100 80L100 70L90 70L90 80L100 80L100 110L90 110L90 100L80 100L80 90L70 90L70 100L80 100L80 110L60 110L60 140L40 140L40 130L50 130L50 120L40 120L40 110L50 110L50 100L60 100L60 90L50 90L50 100L40 100L40 90L30 90L30 120L20 120L20 130L30 130L30 140L10 140L10 180L20 180L20 150L30 150L30 140L40 140L40 160L30 160L30 180L40 180L40 190L30 190L30 200L20 200L20 190L10 190L10 200L20 200L20 210L10 210L10 220L20 220L20 210L30 210L30 220L40 220L40 210L60 210L60 220L80 220L80 210L70 210L70 200L100 200L100 190L110 190L110 180L120 180L120 190L140 190L140 200L150 200L150 190L160 190L160 180L170 180L170 190L180 190L180 200L160 200L160 210L170 210L170 220L160 220L160 230L150 230L150 220L140 220L140 230L130 230L130 200L120 200L120 210L110 210L110 220L90 220L90 230L130 230L130 250L150 250L150 270L130 270L130 260L120 260L120 240L100 240L100 250L90 250L90 260L100 260L100 250L110 250L110 260L120 260L120 270L90 270L90 280L140 280L140 300L150 300L150 290L160 290L160 260L170 260L170 270L200 270L200 230L180 230L180 220L190 220L190 210L210 210L210 260L240 260L240 300L250 300L250 280L260 280L260 270L270 270L270 250L260 250L260 240L270 240L270 220L280 220L280 210L270 210L270 220L260 220L260 200L250 200L250 170L240 170L240 130L250 130L250 120L260 120L260 110L270 110L270 120L300 120L300 110L280 110L280 100L290 100L290 90L280 90L280 100L260 100L260 90L250 90L250 100L260 100L260 110L240 110L240 130L220 130L220 140L210 140L210 120L220 120L220 90L210 90L210 80L220 80L220 60L210 60L210 50L200 50L200 30L210 30L210 40L220 40L220 10L200 10L200 30L190 30L190 10L170 10L170 20L150 20L150 10L140 10L140 20L130 20L130 40L110 40L110 30L100 30L100 20L110 20L110 10L100 10M230 10L230 80L300 80L300 10L230 10M70 20L70 70L20 70L20 20L70 20M150 20L150 30L140 30L140 20L150 20M290 20L290 70L240 70L240 20L290 20M30 30L30 60L60 60L60 30L30 30M170 30L170 40L180 40L180 30L190 30L190 50L200 50L200 70L210 70L210 80L200 80L200 90L210 90L210 100L180 100L180 130L190 130L190 110L210 110L210 120L200 120L200 140L210 140L210 150L220 150L220 160L230 160L230 170L220 170L220 190L240 190L240 210L220 210L220 190L210 190L210 200L190 200L190 190L200 190L200 180L180 180L180 170L190 170L190 160L170 160L170 170L160 170L160 150L150 150L150 160L140 160L140 170L150 170L150 190L140 190L140 180L120 180L120 170L130 170L130 160L140 160L140 150L150 150L150 140L140 140L140 120L130 120L130 130L120 130L120 120L130 120L130 110L140 110L140 100L110 100L110 80L120 80L120 70L130 70L130 50L150 50L150 60L160 60L160 50L170 50L170 40L160 40L160 30L170 30M250 30L250 60L280 60L280 30L250 30M180 50L180 60L190 60L190 50L180 50M140 60L140 70L130 70L130 80L120 80L120 90L150 90L150 110L140 110L140 120L150 120L150 110L170 110L170 100L180 100L180 90L190 90L190 80L200 80L200 70L190 70L190 80L180 80L180 70L170 70L170 90L160 90L160 70L150 70L150 60L140 60M150 70L150 80L140 80L140 70L150 70M10 90L10 110L20 110L20 90L10 90M90 110L90 120L80 120L80 130L70 130L70 120L80 120L80 110L90 110M110 120L110 140L130 140L130 150L110 150L110 170L90 170L90 180L100 180L100 190L90 190L90 180L80 180L80 190L50 190L50 200L40 200L40 190L50 190L50 170L60 170L60 160L50 160L50 150L60 150L60 140L80 140L80 150L90 150L90 130L100 130L100 120L110 120M160 120L160 150L180 150L180 140L170 140L170 120L160 120M280 130L280 140L290 140L290 150L280 150L280 160L290 160L290 170L280 170L280 190L270 190L270 200L300 200L300 190L290 190L290 180L300 180L300 130L280 130M70 150L70 160L80 160L80 150L70 150M190 150L190 160L200 160L200 150L190 150M250 150L250 160L270 160L270 150L250 150M210 160L210 170L220 170L220 160L210 160M70 170L70 180L80 180L80 170L70 170M260 170L260 180L270 180L270 170L260 170M290 210L290 240L280 240L280 250L290 250L290 260L280 260L280 270L290 270L290 280L280 280L280 290L270 290L270 300L300 300L300 290L290 290L290 280L300 280L300 210L290 210M250 220L250 250L220 250L220 220L250 220M10 230L10 300L80 300L80 230L10 230M150 230L150 240L140 240L140 230L150 230M180 230L180 250L160 250L160 230L180 230M230 230L230 240L240 240L240 230L230 230M70 240L70 290L20 290L20 240L70 240M30 250L30 280L60 280L60 250L30 250M210 270L210 280L180 280L180 290L170 290L170 300L180 300L180 290L200 290L200 300L220 300L220 290L210 290L210 280L230 280L230 270L210 270M90 290L90 300L110 300L110 290L90 290M120 290L120 300L130 300L130 290L120 290z"/>
</svg>
